<mxfile host="app.diagrams.net" modified="2023-12-08T08:12:34.148Z" agent="Mozilla/5.0 (Windows NT 10.0; Win64; x64) AppleWebKit/537.36 (KHTML, like Gecko) Chrome/119.0.0.0 Safari/537.36 Edg/119.0.0.0" etag="OmdjVMTXiocs55yF1zvC" version="22.1.7" type="device">
  <diagram name="Seite-1" id="h0puhXZ945k9S0niGxLN">
    <mxGraphModel dx="956" dy="547" grid="1" gridSize="10" guides="1" tooltips="1" connect="1" arrows="1" fold="1" page="1" pageScale="1" pageWidth="1169" pageHeight="827" math="0" shadow="0">
      <root>
        <mxCell id="0" />
        <mxCell id="1" parent="0" />
        <mxCell id="SRUuakbCna23G8XX7YoJ-2" value="" style="rounded=0;whiteSpace=wrap;html=1;" parent="1" vertex="1">
          <mxGeometry x="180" y="30" width="710" height="490" as="geometry" />
        </mxCell>
        <mxCell id="SRUuakbCna23G8XX7YoJ-3" value="Spieler" style="shape=umlActor;verticalLabelPosition=bottom;verticalAlign=top;html=1;outlineConnect=0;" parent="1" vertex="1">
          <mxGeometry x="110" y="210" width="30" height="60" as="geometry" />
        </mxCell>
        <mxCell id="SRUuakbCna23G8XX7YoJ-4" value="App starten" style="ellipse;whiteSpace=wrap;html=1;align=center;" parent="1" vertex="1">
          <mxGeometry x="260" y="220" width="100" height="40" as="geometry" />
        </mxCell>
        <mxCell id="SRUuakbCna23G8XX7YoJ-7" value="Einloggen" style="ellipse;whiteSpace=wrap;html=1;align=center;" parent="1" vertex="1">
          <mxGeometry x="290" y="70" width="100" height="40" as="geometry" />
        </mxCell>
        <mxCell id="SRUuakbCna23G8XX7YoJ-10" value="" style="endArrow=none;html=1;rounded=0;entryX=0;entryY=0.5;entryDx=0;entryDy=0;" parent="1" target="SRUuakbCna23G8XX7YoJ-4" edge="1">
          <mxGeometry width="50" height="50" relative="1" as="geometry">
            <mxPoint x="150" y="240" as="sourcePoint" />
            <mxPoint x="200" y="190" as="targetPoint" />
          </mxGeometry>
        </mxCell>
        <mxCell id="SRUuakbCna23G8XX7YoJ-14" value="Registrieren         " style="ellipse;whiteSpace=wrap;html=1;align=center;" parent="1" vertex="1">
          <mxGeometry x="520" y="70" width="100" height="40" as="geometry" />
        </mxCell>
        <mxCell id="SRUuakbCna23G8XX7YoJ-17" value="&lt;font style=&quot;font-size: 12px;&quot;&gt;Falls noch kein Account vorhanden&lt;/font&gt;" style="shape=note;whiteSpace=wrap;html=1;backgroundOutline=1;darkOpacity=0.05;align=left;" parent="1" vertex="1">
          <mxGeometry x="585" y="170" width="160" height="40" as="geometry" />
        </mxCell>
        <mxCell id="SRUuakbCna23G8XX7YoJ-18" value="" style="endArrow=none;dashed=1;html=1;rounded=0;entryX=0;entryY=0.5;entryDx=0;entryDy=0;entryPerimeter=0;" parent="1" edge="1" target="SRUuakbCna23G8XX7YoJ-17">
          <mxGeometry width="50" height="50" relative="1" as="geometry">
            <mxPoint x="500" y="80" as="sourcePoint" />
            <mxPoint x="540" y="240" as="targetPoint" />
          </mxGeometry>
        </mxCell>
        <mxCell id="SRUuakbCna23G8XX7YoJ-22" value="Neunerln" style="text;html=1;align=center;verticalAlign=middle;resizable=0;points=[];autosize=1;strokeColor=none;fillColor=none;" parent="1" vertex="1">
          <mxGeometry x="180" y="30" width="70" height="30" as="geometry" />
        </mxCell>
        <mxCell id="SRUuakbCna23G8XX7YoJ-25" value="" style="endArrow=classic;html=1;rounded=0;entryX=0.5;entryY=1;entryDx=0;entryDy=0;dashed=1;exitX=0.5;exitY=0;exitDx=0;exitDy=0;" parent="1" source="SRUuakbCna23G8XX7YoJ-4" target="SRUuakbCna23G8XX7YoJ-7" edge="1">
          <mxGeometry relative="1" as="geometry">
            <mxPoint x="430" y="210" as="sourcePoint" />
            <mxPoint x="345.35533905932743" y="265.85786437626905" as="targetPoint" />
          </mxGeometry>
        </mxCell>
        <mxCell id="SRUuakbCna23G8XX7YoJ-26" value="&amp;lt;&amp;lt;includes&amp;gt;&amp;gt;" style="edgeLabel;resizable=0;html=1;align=center;verticalAlign=middle;" parent="SRUuakbCna23G8XX7YoJ-25" connectable="0" vertex="1">
          <mxGeometry relative="1" as="geometry">
            <mxPoint x="-1" as="offset" />
          </mxGeometry>
        </mxCell>
        <mxCell id="SRUuakbCna23G8XX7YoJ-28" value="" style="endArrow=classic;html=1;rounded=0;entryX=1;entryY=0.5;entryDx=0;entryDy=0;exitX=0.22;exitY=0.1;exitDx=0;exitDy=0;exitPerimeter=0;dashed=1;" parent="1" source="SRUuakbCna23G8XX7YoJ-14" target="SRUuakbCna23G8XX7YoJ-7" edge="1">
          <mxGeometry relative="1" as="geometry">
            <mxPoint x="490" y="280" as="sourcePoint" />
            <mxPoint x="590" y="280" as="targetPoint" />
          </mxGeometry>
        </mxCell>
        <mxCell id="SRUuakbCna23G8XX7YoJ-29" value="&amp;lt;&amp;lt;extends&amp;gt;&amp;gt;" style="edgeLabel;resizable=0;html=1;align=center;verticalAlign=middle;" parent="SRUuakbCna23G8XX7YoJ-28" connectable="0" vertex="1">
          <mxGeometry relative="1" as="geometry" />
        </mxCell>
        <mxCell id="SRUuakbCna23G8XX7YoJ-34" value="Karten ziehen" style="ellipse;whiteSpace=wrap;html=1;align=center;" parent="1" vertex="1">
          <mxGeometry x="585" y="390" width="100" height="40" as="geometry" />
        </mxCell>
        <mxCell id="SRUuakbCna23G8XX7YoJ-39" value="" style="endArrow=classic;html=1;rounded=0;dashed=1;exitX=1;exitY=0.5;exitDx=0;exitDy=0;entryX=0;entryY=0.5;entryDx=0;entryDy=0;" parent="1" target="SRUuakbCna23G8XX7YoJ-34" edge="1" source="f3FlR0FLvmJoAxLqKCOd-4">
          <mxGeometry relative="1" as="geometry">
            <mxPoint x="310" y="260" as="sourcePoint" />
            <mxPoint x="560" y="430" as="targetPoint" />
          </mxGeometry>
        </mxCell>
        <mxCell id="SRUuakbCna23G8XX7YoJ-40" value="&amp;lt;&amp;lt;includes&amp;gt;&amp;gt;" style="edgeLabel;resizable=0;html=1;align=center;verticalAlign=middle;" parent="SRUuakbCna23G8XX7YoJ-39" connectable="0" vertex="1">
          <mxGeometry relative="1" as="geometry" />
        </mxCell>
        <mxCell id="SRUuakbCna23G8XX7YoJ-50" value="*" style="text;html=1;align=center;verticalAlign=middle;resizable=0;points=[];autosize=1;strokeColor=none;fillColor=none;" parent="1" vertex="1">
          <mxGeometry x="145" y="238" width="30" height="30" as="geometry" />
        </mxCell>
        <mxCell id="SRUuakbCna23G8XX7YoJ-51" value="1" style="text;html=1;align=center;verticalAlign=middle;resizable=0;points=[];autosize=1;strokeColor=none;fillColor=none;" parent="1" vertex="1">
          <mxGeometry x="230" y="238" width="30" height="30" as="geometry" />
        </mxCell>
        <mxCell id="SRUuakbCna23G8XX7YoJ-57" value="Spiel Session erstellen" style="ellipse;whiteSpace=wrap;html=1;align=center;" parent="1" vertex="1">
          <mxGeometry x="270" y="414" width="100" height="40" as="geometry" />
        </mxCell>
        <mxCell id="SRUuakbCna23G8XX7YoJ-70" value="" style="endArrow=classic;html=1;rounded=0;entryX=0.5;entryY=0;entryDx=0;entryDy=0;dashed=1;" parent="1" target="SRUuakbCna23G8XX7YoJ-57" edge="1">
          <mxGeometry relative="1" as="geometry">
            <mxPoint x="310" y="260" as="sourcePoint" />
            <mxPoint x="410" y="260" as="targetPoint" />
          </mxGeometry>
        </mxCell>
        <mxCell id="SRUuakbCna23G8XX7YoJ-71" value="&amp;lt;&amp;lt;includes&amp;gt;&amp;gt;" style="edgeLabel;resizable=0;html=1;align=center;verticalAlign=middle;" parent="SRUuakbCna23G8XX7YoJ-70" connectable="0" vertex="1">
          <mxGeometry relative="1" as="geometry" />
        </mxCell>
        <mxCell id="f3FlR0FLvmJoAxLqKCOd-4" value="Session spielen" style="ellipse;whiteSpace=wrap;html=1;align=center;" vertex="1" parent="1">
          <mxGeometry x="400" y="390" width="100" height="40" as="geometry" />
        </mxCell>
        <mxCell id="f3FlR0FLvmJoAxLqKCOd-5" value="" style="endArrow=classic;html=1;rounded=0;dashed=1;exitX=0.5;exitY=1;exitDx=0;exitDy=0;" edge="1" parent="1" source="SRUuakbCna23G8XX7YoJ-4" target="f3FlR0FLvmJoAxLqKCOd-4">
          <mxGeometry relative="1" as="geometry">
            <mxPoint x="320" y="270" as="sourcePoint" />
            <mxPoint x="340" y="440" as="targetPoint" />
          </mxGeometry>
        </mxCell>
        <mxCell id="f3FlR0FLvmJoAxLqKCOd-6" value="&amp;lt;&amp;lt;includes&amp;gt;&amp;gt;" style="edgeLabel;resizable=0;html=1;align=center;verticalAlign=middle;" connectable="0" vertex="1" parent="f3FlR0FLvmJoAxLqKCOd-5">
          <mxGeometry relative="1" as="geometry" />
        </mxCell>
        <mxCell id="f3FlR0FLvmJoAxLqKCOd-7" value="Karten spielen" style="ellipse;whiteSpace=wrap;html=1;align=center;" vertex="1" parent="1">
          <mxGeometry x="450" y="470" width="100" height="40" as="geometry" />
        </mxCell>
        <mxCell id="f3FlR0FLvmJoAxLqKCOd-10" value="" style="endArrow=classic;html=1;rounded=0;entryX=0;entryY=0;entryDx=0;entryDy=0;dashed=1;exitX=0.5;exitY=1;exitDx=0;exitDy=0;" edge="1" parent="1" source="f3FlR0FLvmJoAxLqKCOd-4" target="f3FlR0FLvmJoAxLqKCOd-7">
          <mxGeometry relative="1" as="geometry">
            <mxPoint x="500" y="440" as="sourcePoint" />
            <mxPoint x="450" y="480.9999999999999" as="targetPoint" />
          </mxGeometry>
        </mxCell>
        <mxCell id="f3FlR0FLvmJoAxLqKCOd-11" value="&amp;lt;&amp;lt;includes&amp;gt;&amp;gt;" style="edgeLabel;resizable=0;html=1;align=center;verticalAlign=middle;" connectable="0" vertex="1" parent="f3FlR0FLvmJoAxLqKCOd-10">
          <mxGeometry relative="1" as="geometry" />
        </mxCell>
        <mxCell id="f3FlR0FLvmJoAxLqKCOd-12" value="Highscore abrufen" style="ellipse;whiteSpace=wrap;html=1;align=center;" vertex="1" parent="1">
          <mxGeometry x="560" y="280" width="100" height="40" as="geometry" />
        </mxCell>
        <mxCell id="f3FlR0FLvmJoAxLqKCOd-19" value="" style="endArrow=classic;html=1;rounded=0;dashed=1;exitX=0;exitY=0.5;exitDx=0;exitDy=0;entryX=1;entryY=1;entryDx=0;entryDy=0;" edge="1" parent="1" source="f3FlR0FLvmJoAxLqKCOd-12" target="SRUuakbCna23G8XX7YoJ-4">
          <mxGeometry relative="1" as="geometry">
            <mxPoint x="485" y="401" as="sourcePoint" />
            <mxPoint x="360" y="240" as="targetPoint" />
          </mxGeometry>
        </mxCell>
        <mxCell id="f3FlR0FLvmJoAxLqKCOd-20" value="&amp;lt;&amp;lt;extends&amp;gt;&amp;gt;" style="edgeLabel;resizable=0;html=1;align=center;verticalAlign=middle;" connectable="0" vertex="1" parent="f3FlR0FLvmJoAxLqKCOd-19">
          <mxGeometry relative="1" as="geometry" />
        </mxCell>
        <mxCell id="f3FlR0FLvmJoAxLqKCOd-22" value="" style="endArrow=classic;html=1;rounded=0;dashed=1;exitX=0.5;exitY=1;exitDx=0;exitDy=0;entryX=1;entryY=0;entryDx=0;entryDy=0;" edge="1" parent="1" source="f3FlR0FLvmJoAxLqKCOd-12" target="f3FlR0FLvmJoAxLqKCOd-4">
          <mxGeometry relative="1" as="geometry">
            <mxPoint x="520" y="310" as="sourcePoint" />
            <mxPoint x="355" y="264" as="targetPoint" />
          </mxGeometry>
        </mxCell>
        <mxCell id="f3FlR0FLvmJoAxLqKCOd-23" value="&amp;lt;&amp;lt;extends&amp;gt;&amp;gt;" style="edgeLabel;resizable=0;html=1;align=center;verticalAlign=middle;" connectable="0" vertex="1" parent="f3FlR0FLvmJoAxLqKCOd-22">
          <mxGeometry relative="1" as="geometry" />
        </mxCell>
        <mxCell id="f3FlR0FLvmJoAxLqKCOd-24" value="" style="shape=cylinder3;whiteSpace=wrap;html=1;boundedLbl=1;backgroundOutline=1;size=15;" vertex="1" parent="1">
          <mxGeometry x="930" y="270" width="40" height="50" as="geometry" />
        </mxCell>
        <mxCell id="f3FlR0FLvmJoAxLqKCOd-25" value="" style="endArrow=none;html=1;entryX=1;entryY=0;entryDx=0;entryDy=30;entryPerimeter=0;curved=1;" edge="1" parent="1" target="f3FlR0FLvmJoAxLqKCOd-24">
          <mxGeometry width="50" height="50" relative="1" as="geometry">
            <mxPoint x="930" y="300" as="sourcePoint" />
            <mxPoint x="980" y="250" as="targetPoint" />
            <Array as="points">
              <mxPoint x="950" y="320" />
            </Array>
          </mxGeometry>
        </mxCell>
        <mxCell id="f3FlR0FLvmJoAxLqKCOd-26" value="" style="endArrow=none;html=1;rounded=0;" edge="1" parent="1">
          <mxGeometry width="50" height="50" relative="1" as="geometry">
            <mxPoint x="660" y="300" as="sourcePoint" />
            <mxPoint x="930" y="300" as="targetPoint" />
          </mxGeometry>
        </mxCell>
        <mxCell id="f3FlR0FLvmJoAxLqKCOd-27" value="Session beenden" style="ellipse;whiteSpace=wrap;html=1;align=center;" vertex="1" parent="1">
          <mxGeometry x="460" y="220" width="100" height="40" as="geometry" />
        </mxCell>
        <mxCell id="f3FlR0FLvmJoAxLqKCOd-28" value="" style="endArrow=classic;html=1;rounded=0;dashed=1;exitX=0;exitY=0.5;exitDx=0;exitDy=0;entryX=1;entryY=0.5;entryDx=0;entryDy=0;" edge="1" parent="1" source="f3FlR0FLvmJoAxLqKCOd-27" target="SRUuakbCna23G8XX7YoJ-4">
          <mxGeometry relative="1" as="geometry">
            <mxPoint x="575" y="263" as="sourcePoint" />
            <mxPoint x="360" y="217" as="targetPoint" />
          </mxGeometry>
        </mxCell>
        <mxCell id="f3FlR0FLvmJoAxLqKCOd-29" value="&amp;lt;&amp;lt;extends&amp;gt;&amp;gt;" style="edgeLabel;resizable=0;html=1;align=center;verticalAlign=middle;" connectable="0" vertex="1" parent="f3FlR0FLvmJoAxLqKCOd-28">
          <mxGeometry relative="1" as="geometry" />
        </mxCell>
        <mxCell id="f3FlR0FLvmJoAxLqKCOd-32" value="Highscore aktualisieren" style="ellipse;whiteSpace=wrap;html=1;align=center;" vertex="1" parent="1">
          <mxGeometry x="660" y="230" width="100" height="40" as="geometry" />
        </mxCell>
        <mxCell id="f3FlR0FLvmJoAxLqKCOd-34" value="" style="endArrow=none;html=1;rounded=0;entryX=0;entryY=0;entryDx=0;entryDy=30;entryPerimeter=0;exitX=1;exitY=0.5;exitDx=0;exitDy=0;" edge="1" parent="1" source="f3FlR0FLvmJoAxLqKCOd-32" target="f3FlR0FLvmJoAxLqKCOd-24">
          <mxGeometry width="50" height="50" relative="1" as="geometry">
            <mxPoint x="715" y="247.66" as="sourcePoint" />
            <mxPoint x="985" y="247.66" as="targetPoint" />
          </mxGeometry>
        </mxCell>
        <mxCell id="f3FlR0FLvmJoAxLqKCOd-35" value="" style="endArrow=classic;html=1;rounded=0;dashed=1;exitX=1;exitY=0.5;exitDx=0;exitDy=0;entryX=0;entryY=0.5;entryDx=0;entryDy=0;" edge="1" parent="1" target="f3FlR0FLvmJoAxLqKCOd-32">
          <mxGeometry relative="1" as="geometry">
            <mxPoint x="560" y="239.66" as="sourcePoint" />
            <mxPoint x="645" y="239.66" as="targetPoint" />
          </mxGeometry>
        </mxCell>
        <mxCell id="f3FlR0FLvmJoAxLqKCOd-36" value="&amp;lt;&amp;lt;includes&amp;gt;&amp;gt;" style="edgeLabel;resizable=0;html=1;align=center;verticalAlign=middle;" connectable="0" vertex="1" parent="f3FlR0FLvmJoAxLqKCOd-35">
          <mxGeometry relative="1" as="geometry">
            <mxPoint x="-3" as="offset" />
          </mxGeometry>
        </mxCell>
        <mxCell id="f3FlR0FLvmJoAxLqKCOd-37" value="Datenbank" style="text;html=1;align=center;verticalAlign=middle;resizable=0;points=[];autosize=1;strokeColor=none;fillColor=none;" vertex="1" parent="1">
          <mxGeometry x="910" y="320" width="80" height="30" as="geometry" />
        </mxCell>
      </root>
    </mxGraphModel>
  </diagram>
</mxfile>
